<mxfile host="app.diagrams.net" modified="2023-08-30T23:09:19.226Z" agent="Mozilla/5.0 (Windows NT 10.0; Win64; x64; rv:109.0) Gecko/20100101 Firefox/116.0" etag="tVOeJfBkbu-Jtra2KN55" version="21.7.1" type="github">
  <diagram name="Page-1" id="shF8shhkMKsd_J-aFrly">
    <mxGraphModel dx="1185" dy="637" grid="1" gridSize="10" guides="1" tooltips="1" connect="1" arrows="1" fold="1" page="1" pageScale="1" pageWidth="850" pageHeight="1100" math="0" shadow="0">
      <root>
        <mxCell id="0" />
        <mxCell id="1" parent="0" />
        <mxCell id="lNHIe1rahEr5vsZYYmyg-2" value="&lt;font data-font-src=&quot;https://fonts.googleapis.com/css?family=Calibri&quot; face=&quot;Calibri&quot; style=&quot;font-size: 20px;&quot;&gt;DMX512 Universe&lt;/font&gt;" style="text;html=1;strokeColor=none;fillColor=none;align=center;verticalAlign=middle;whiteSpace=wrap;rounded=0;" parent="1" vertex="1">
          <mxGeometry x="315" y="210" width="170" height="40" as="geometry" />
        </mxCell>
        <mxCell id="lNHIe1rahEr5vsZYYmyg-68" value="" style="group" parent="1" vertex="1" connectable="0">
          <mxGeometry x="230" y="270" width="131" height="70" as="geometry" />
        </mxCell>
        <mxCell id="lNHIe1rahEr5vsZYYmyg-8" value="" style="rounded=0;whiteSpace=wrap;html=1;fillColor=#d5e8d4;strokeColor=default;" parent="lNHIe1rahEr5vsZYYmyg-68" vertex="1">
          <mxGeometry width="130" height="70" as="geometry" />
        </mxCell>
        <mxCell id="lNHIe1rahEr5vsZYYmyg-20" value="&lt;div align=&quot;center&quot;&gt;DMX Receiver 1&lt;br&gt;&lt;/div&gt;" style="text;whiteSpace=wrap;html=1;align=center;" parent="lNHIe1rahEr5vsZYYmyg-68" vertex="1">
          <mxGeometry x="1" y="-2" width="130" height="22" as="geometry" />
        </mxCell>
        <mxCell id="lNHIe1rahEr5vsZYYmyg-39" value="" style="group" parent="lNHIe1rahEr5vsZYYmyg-68" vertex="1" connectable="0">
          <mxGeometry y="20" width="31.901840490797547" height="24" as="geometry" />
        </mxCell>
        <mxCell id="lNHIe1rahEr5vsZYYmyg-66" value="" style="group" parent="lNHIe1rahEr5vsZYYmyg-39" vertex="1" connectable="0">
          <mxGeometry width="31.901840490797547" height="24" as="geometry" />
        </mxCell>
        <mxCell id="lNHIe1rahEr5vsZYYmyg-9" value="" style="rounded=0;whiteSpace=wrap;html=1;" parent="lNHIe1rahEr5vsZYYmyg-66" vertex="1">
          <mxGeometry y="4" width="31.901840490797547" height="20" as="geometry" />
        </mxCell>
        <mxCell id="lNHIe1rahEr5vsZYYmyg-13" value="&lt;div align=&quot;justify&quot;&gt;IN&lt;/div&gt;" style="text;whiteSpace=wrap;html=1;" parent="lNHIe1rahEr5vsZYYmyg-66" vertex="1">
          <mxGeometry x="9.570552147239264" width="15.950920245398773" height="20" as="geometry" />
        </mxCell>
        <mxCell id="lNHIe1rahEr5vsZYYmyg-31" value="" style="rounded=0;whiteSpace=wrap;html=1;" parent="lNHIe1rahEr5vsZYYmyg-68" vertex="1">
          <mxGeometry x="92.09325153374235" y="24" width="37.91" height="20" as="geometry" />
        </mxCell>
        <mxCell id="hq53a7k9uLLdRGu1v-rV-1" value="Bytes 0-2" style="text;whiteSpace=wrap;html=1;align=center;" parent="lNHIe1rahEr5vsZYYmyg-68" vertex="1">
          <mxGeometry x="1" y="44" width="130" height="22" as="geometry" />
        </mxCell>
        <mxCell id="lNHIe1rahEr5vsZYYmyg-113" style="edgeStyle=orthogonalEdgeStyle;rounded=0;orthogonalLoop=1;jettySize=auto;html=1;exitX=1;exitY=0.5;exitDx=0;exitDy=0;entryX=0;entryY=0.5;entryDx=0;entryDy=0;" parent="1" source="lNHIe1rahEr5vsZYYmyg-31" target="lNHIe1rahEr5vsZYYmyg-128" edge="1">
          <mxGeometry relative="1" as="geometry">
            <mxPoint x="410" y="304" as="targetPoint" />
          </mxGeometry>
        </mxCell>
        <mxCell id="lNHIe1rahEr5vsZYYmyg-120" value="" style="group" parent="1" vertex="1" connectable="0">
          <mxGeometry x="400" y="270" width="130" height="70" as="geometry" />
        </mxCell>
        <mxCell id="lNHIe1rahEr5vsZYYmyg-121" value="" style="rounded=0;whiteSpace=wrap;html=1;fillColor=#f8cecc;strokeColor=#b85450;" parent="lNHIe1rahEr5vsZYYmyg-120" vertex="1">
          <mxGeometry width="127.60736196319019" height="70" as="geometry" />
        </mxCell>
        <mxCell id="lNHIe1rahEr5vsZYYmyg-122" value="&lt;div align=&quot;center&quot;&gt;DMX Receiver 2&lt;br&gt;&lt;/div&gt;" style="text;whiteSpace=wrap;html=1;align=center;" parent="lNHIe1rahEr5vsZYYmyg-120" vertex="1">
          <mxGeometry y="-2" width="130" height="22" as="geometry" />
        </mxCell>
        <mxCell id="lNHIe1rahEr5vsZYYmyg-123" value="" style="group" parent="lNHIe1rahEr5vsZYYmyg-120" vertex="1" connectable="0">
          <mxGeometry x="99.69325153374234" y="20" width="30.306748466257673" height="24" as="geometry" />
        </mxCell>
        <mxCell id="lNHIe1rahEr5vsZYYmyg-124" value="" style="rounded=0;whiteSpace=wrap;html=1;" parent="lNHIe1rahEr5vsZYYmyg-123" vertex="1">
          <mxGeometry x="-10" y="4" width="37.91" height="20" as="geometry" />
        </mxCell>
        <mxCell id="lNHIe1rahEr5vsZYYmyg-125" value="&lt;div align=&quot;justify&quot;&gt;OUT&lt;/div&gt;" style="text;whiteSpace=wrap;html=1;" parent="lNHIe1rahEr5vsZYYmyg-123" vertex="1">
          <mxGeometry x="-5" width="27.91" height="10" as="geometry" />
        </mxCell>
        <mxCell id="lNHIe1rahEr5vsZYYmyg-126" value="" style="group" parent="lNHIe1rahEr5vsZYYmyg-120" vertex="1" connectable="0">
          <mxGeometry y="20" width="31.901840490797547" height="24" as="geometry" />
        </mxCell>
        <mxCell id="lNHIe1rahEr5vsZYYmyg-127" value="" style="group" parent="lNHIe1rahEr5vsZYYmyg-126" vertex="1" connectable="0">
          <mxGeometry width="31.901840490797547" height="24" as="geometry" />
        </mxCell>
        <mxCell id="lNHIe1rahEr5vsZYYmyg-128" value="" style="rounded=0;whiteSpace=wrap;html=1;" parent="lNHIe1rahEr5vsZYYmyg-127" vertex="1">
          <mxGeometry y="4" width="31.901840490797547" height="20" as="geometry" />
        </mxCell>
        <mxCell id="lNHIe1rahEr5vsZYYmyg-129" value="&lt;div align=&quot;justify&quot;&gt;IN&lt;/div&gt;" style="text;whiteSpace=wrap;html=1;" parent="lNHIe1rahEr5vsZYYmyg-127" vertex="1">
          <mxGeometry x="9.570552147239264" width="15.950920245398773" height="20" as="geometry" />
        </mxCell>
        <mxCell id="hq53a7k9uLLdRGu1v-rV-2" value="Bytes 3-5" style="text;whiteSpace=wrap;html=1;align=center;" parent="lNHIe1rahEr5vsZYYmyg-120" vertex="1">
          <mxGeometry x="-1.2000000000000455" y="44" width="130" height="22" as="geometry" />
        </mxCell>
        <mxCell id="lNHIe1rahEr5vsZYYmyg-140" style="edgeStyle=orthogonalEdgeStyle;rounded=0;orthogonalLoop=1;jettySize=auto;html=1;exitX=1;exitY=0.5;exitDx=0;exitDy=0;entryX=0;entryY=0.5;entryDx=0;entryDy=0;" parent="1" source="lNHIe1rahEr5vsZYYmyg-124" edge="1">
          <mxGeometry relative="1" as="geometry">
            <mxPoint x="570" y="304" as="targetPoint" />
          </mxGeometry>
        </mxCell>
        <mxCell id="lNHIe1rahEr5vsZYYmyg-141" value="" style="group" parent="1" vertex="1" connectable="0">
          <mxGeometry x="70" y="270" width="157.91325153374228" height="70" as="geometry" />
        </mxCell>
        <mxCell id="lNHIe1rahEr5vsZYYmyg-4" value="" style="rounded=0;whiteSpace=wrap;html=1;" parent="lNHIe1rahEr5vsZYYmyg-141" vertex="1">
          <mxGeometry width="120" height="70" as="geometry" />
        </mxCell>
        <mxCell id="lNHIe1rahEr5vsZYYmyg-145" value="" style="rounded=0;whiteSpace=wrap;html=1;" parent="lNHIe1rahEr5vsZYYmyg-141" vertex="1">
          <mxGeometry x="82.00325153374229" y="24" width="37.91" height="20" as="geometry" />
        </mxCell>
        <mxCell id="lNHIe1rahEr5vsZYYmyg-29" value="" style="group" parent="lNHIe1rahEr5vsZYYmyg-141" vertex="1" connectable="0">
          <mxGeometry x="85" y="20" width="38" height="30" as="geometry" />
        </mxCell>
        <mxCell id="lNHIe1rahEr5vsZYYmyg-17" value="&lt;div align=&quot;justify&quot;&gt;OUT&lt;/div&gt;" style="text;whiteSpace=wrap;html=1;" parent="lNHIe1rahEr5vsZYYmyg-29" vertex="1">
          <mxGeometry x="3" width="35" height="20" as="geometry" />
        </mxCell>
        <mxCell id="lNHIe1rahEr5vsZYYmyg-37" style="edgeStyle=orthogonalEdgeStyle;rounded=0;orthogonalLoop=1;jettySize=auto;html=1;exitX=0.5;exitY=1;exitDx=0;exitDy=0;" parent="lNHIe1rahEr5vsZYYmyg-29" source="lNHIe1rahEr5vsZYYmyg-17" target="lNHIe1rahEr5vsZYYmyg-17" edge="1">
          <mxGeometry relative="1" as="geometry" />
        </mxCell>
        <mxCell id="lNHIe1rahEr5vsZYYmyg-142" value="&lt;div align=&quot;justify&quot;&gt;OUT&lt;/div&gt;" style="text;whiteSpace=wrap;html=1;" parent="1" vertex="1">
          <mxGeometry x="324.69325153374234" y="290" width="27.91" height="10" as="geometry" />
        </mxCell>
        <mxCell id="lNHIe1rahEr5vsZYYmyg-146" style="edgeStyle=orthogonalEdgeStyle;rounded=0;orthogonalLoop=1;jettySize=auto;html=1;exitX=1;exitY=0.5;exitDx=0;exitDy=0;entryX=-0.018;entryY=0.501;entryDx=0;entryDy=0;entryPerimeter=0;" parent="1" source="lNHIe1rahEr5vsZYYmyg-145" target="lNHIe1rahEr5vsZYYmyg-9" edge="1">
          <mxGeometry relative="1" as="geometry" />
        </mxCell>
        <mxCell id="lNHIe1rahEr5vsZYYmyg-147" value="" style="shape=curlyBracket;whiteSpace=wrap;html=1;rounded=1;labelPosition=left;verticalLabelPosition=middle;align=right;verticalAlign=middle;size=0.5;" parent="1" vertex="1">
          <mxGeometry x="80" y="365" width="18" height="65" as="geometry" />
        </mxCell>
        <mxCell id="lNHIe1rahEr5vsZYYmyg-148" style="edgeStyle=orthogonalEdgeStyle;rounded=0;orthogonalLoop=1;jettySize=auto;html=1;exitX=1;exitY=0.5;exitDx=0;exitDy=0;entryX=0.1;entryY=0.5;entryDx=0;entryDy=0;entryPerimeter=0;" parent="1" source="lNHIe1rahEr5vsZYYmyg-145" target="lNHIe1rahEr5vsZYYmyg-147" edge="1">
          <mxGeometry relative="1" as="geometry">
            <Array as="points">
              <mxPoint x="210" y="304" />
              <mxPoint x="210" y="350" />
              <mxPoint x="70" y="350" />
              <mxPoint x="70" y="398" />
            </Array>
          </mxGeometry>
        </mxCell>
        <mxCell id="lNHIe1rahEr5vsZYYmyg-149" value="Start Code" style="rounded=0;whiteSpace=wrap;html=1;" parent="1" vertex="1">
          <mxGeometry x="177" y="370" width="60" height="20" as="geometry" />
        </mxCell>
        <mxCell id="lNHIe1rahEr5vsZYYmyg-150" value="Byte 0" style="rounded=0;whiteSpace=wrap;html=1;fillColor=#d5e8d4;strokeColor=#000000;" parent="1" vertex="1">
          <mxGeometry x="237" y="370" width="68" height="20" as="geometry" />
        </mxCell>
        <mxCell id="lNHIe1rahEr5vsZYYmyg-151" value="Byte 1" style="rounded=0;whiteSpace=wrap;html=1;fillColor=#d5e8d4;strokeColor=#000000;" parent="1" vertex="1">
          <mxGeometry x="305" y="370" width="95" height="20" as="geometry" />
        </mxCell>
        <mxCell id="lNHIe1rahEr5vsZYYmyg-152" value="Byte 2" style="rounded=0;whiteSpace=wrap;html=1;fillColor=#d5e8d4;strokeColor=#000000;" parent="1" vertex="1">
          <mxGeometry x="400" y="370" width="101.5" height="20" as="geometry" />
        </mxCell>
        <mxCell id="lNHIe1rahEr5vsZYYmyg-19" value="&lt;div style=&quot;font-size: 14px;&quot; align=&quot;center&quot;&gt;&lt;font face=&quot;Calibri&quot; data-font-src=&quot;https://fonts.googleapis.com/css?family=Calibri&quot; style=&quot;font-size: 14px;&quot;&gt;DMX Transmitter&lt;/font&gt;&lt;/div&gt;" style="text;whiteSpace=wrap;html=1;" parent="1" vertex="1">
          <mxGeometry x="80" y="266" width="105" height="60" as="geometry" />
        </mxCell>
        <mxCell id="hq53a7k9uLLdRGu1v-rV-19" value="Visualizer" style="rounded=0;whiteSpace=wrap;html=1;" parent="1" vertex="1">
          <mxGeometry x="177" y="390" width="60" height="20" as="geometry" />
        </mxCell>
        <mxCell id="hq53a7k9uLLdRGu1v-rV-20" value="# of on leds" style="rounded=0;whiteSpace=wrap;html=1;fillColor=#d5e8d4;strokeColor=#000000;" parent="1" vertex="1">
          <mxGeometry x="237" y="390" width="68" height="20" as="geometry" />
        </mxCell>
        <mxCell id="hq53a7k9uLLdRGu1v-rV-21" value="color threshold 1" style="rounded=0;whiteSpace=wrap;html=1;fillColor=#d5e8d4;strokeColor=#000000;" parent="1" vertex="1">
          <mxGeometry x="305" y="390" width="95" height="20" as="geometry" />
        </mxCell>
        <mxCell id="hq53a7k9uLLdRGu1v-rV-22" value="color threshold 2" style="rounded=0;whiteSpace=wrap;html=1;fillColor=#d5e8d4;strokeColor=#000000;" parent="1" vertex="1">
          <mxGeometry x="400" y="390" width="101.5" height="20" as="geometry" />
        </mxCell>
        <mxCell id="hq53a7k9uLLdRGu1v-rV-29" value="2" style="rounded=0;whiteSpace=wrap;html=1;" parent="1" vertex="1">
          <mxGeometry x="177" y="410" width="60" height="20" as="geometry" />
        </mxCell>
        <mxCell id="hq53a7k9uLLdRGu1v-rV-30" value="16" style="rounded=0;whiteSpace=wrap;html=1;fillColor=#d5e8d4;strokeColor=#000000;" parent="1" vertex="1">
          <mxGeometry x="237" y="410" width="68" height="20" as="geometry" />
        </mxCell>
        <mxCell id="hq53a7k9uLLdRGu1v-rV-31" value="11" style="rounded=0;whiteSpace=wrap;html=1;fillColor=#d5e8d4;strokeColor=#000000;" parent="1" vertex="1">
          <mxGeometry x="305" y="410" width="95" height="20" as="geometry" />
        </mxCell>
        <mxCell id="hq53a7k9uLLdRGu1v-rV-32" value="22" style="rounded=0;whiteSpace=wrap;html=1;fillColor=#d5e8d4;strokeColor=#000000;" parent="1" vertex="1">
          <mxGeometry x="400" y="410" width="101.5" height="20" as="geometry" />
        </mxCell>
        <mxCell id="hq53a7k9uLLdRGu1v-rV-41" value="Byte Meaning" style="text;html=1;strokeColor=none;fillColor=none;align=center;verticalAlign=middle;whiteSpace=wrap;rounded=0;" parent="1" vertex="1">
          <mxGeometry x="85" y="392.5" width="100" height="15" as="geometry" />
        </mxCell>
        <mxCell id="hq53a7k9uLLdRGu1v-rV-42" value="Byte Values" style="text;html=1;strokeColor=none;fillColor=none;align=center;verticalAlign=middle;whiteSpace=wrap;rounded=0;" parent="1" vertex="1">
          <mxGeometry x="85" y="410" width="100" height="15" as="geometry" />
        </mxCell>
        <mxCell id="K1xRb-kiVbMolPLDV2YE-1" value="Byte 0" style="rounded=0;whiteSpace=wrap;html=1;fillColor=#f8cecc;strokeColor=#000000;" vertex="1" parent="1">
          <mxGeometry x="501.5" y="370" width="68" height="20" as="geometry" />
        </mxCell>
        <mxCell id="K1xRb-kiVbMolPLDV2YE-2" value="Byte 1" style="rounded=0;whiteSpace=wrap;html=1;fillColor=#f8cecc;strokeColor=#000000;" vertex="1" parent="1">
          <mxGeometry x="569.5" y="370" width="95" height="20" as="geometry" />
        </mxCell>
        <mxCell id="K1xRb-kiVbMolPLDV2YE-3" value="Byte 2" style="rounded=0;whiteSpace=wrap;html=1;fillColor=#f8cecc;strokeColor=#000000;" vertex="1" parent="1">
          <mxGeometry x="664.5" y="370" width="101.5" height="20" as="geometry" />
        </mxCell>
        <mxCell id="K1xRb-kiVbMolPLDV2YE-4" value="# of on leds" style="rounded=0;whiteSpace=wrap;html=1;fillColor=#f8cecc;strokeColor=#000000;" vertex="1" parent="1">
          <mxGeometry x="501.5" y="390" width="68" height="20" as="geometry" />
        </mxCell>
        <mxCell id="K1xRb-kiVbMolPLDV2YE-5" value="color threshold 1" style="rounded=0;whiteSpace=wrap;html=1;fillColor=#f8cecc;strokeColor=#000000;" vertex="1" parent="1">
          <mxGeometry x="569.5" y="390" width="95" height="20" as="geometry" />
        </mxCell>
        <mxCell id="K1xRb-kiVbMolPLDV2YE-6" value="color threshold 2" style="rounded=0;whiteSpace=wrap;html=1;fillColor=#f8cecc;strokeColor=#000000;" vertex="1" parent="1">
          <mxGeometry x="664.5" y="390" width="101.5" height="20" as="geometry" />
        </mxCell>
        <mxCell id="K1xRb-kiVbMolPLDV2YE-7" value="16" style="rounded=0;whiteSpace=wrap;html=1;fillColor=#f8cecc;strokeColor=#000000;" vertex="1" parent="1">
          <mxGeometry x="501.5" y="410" width="68" height="20" as="geometry" />
        </mxCell>
        <mxCell id="K1xRb-kiVbMolPLDV2YE-8" value="11" style="rounded=0;whiteSpace=wrap;html=1;fillColor=#f8cecc;strokeColor=#000000;" vertex="1" parent="1">
          <mxGeometry x="569.5" y="410" width="95" height="20" as="geometry" />
        </mxCell>
        <mxCell id="K1xRb-kiVbMolPLDV2YE-9" value="22" style="rounded=0;whiteSpace=wrap;html=1;fillColor=#f8cecc;strokeColor=#000000;" vertex="1" parent="1">
          <mxGeometry x="664.5" y="410" width="101.5" height="20" as="geometry" />
        </mxCell>
        <mxCell id="K1xRb-kiVbMolPLDV2YE-12" value="" style="shape=curlyBracket;whiteSpace=wrap;html=1;rounded=1;flipH=1;labelPosition=right;verticalLabelPosition=middle;align=left;verticalAlign=middle;size=0.5;" vertex="1" parent="1">
          <mxGeometry x="770" y="367.5" width="18" height="65" as="geometry" />
        </mxCell>
      </root>
    </mxGraphModel>
  </diagram>
</mxfile>
